<?xml version="1.0" encoding="UTF-8" standalone="no"?>
<!DOCTYPE svg PUBLIC "-//W3C//DTD SVG 1.1//EN"
 "http://www.w3.org/Graphics/SVG/1.1/DTD/svg11.dtd">
<!-- Generated by graphviz version 2.28.0 (20111028.1807)
 -->
<!-- Title: G Pages: 1 -->
<svg width="488pt" height="265pt"
 viewBox="0.00 0.00 488.00 265.00" xmlns="http://www.w3.org/2000/svg" xmlns:xlink="http://www.w3.org/1999/xlink">
<g id="graph1" class="graph" transform="scale(1 1) rotate(0) translate(4 261)">
<title>G</title>
<polygon fill="white" stroke="white" points="-4,5 -4,-261 485,-261 485,5 -4,5"/>
<g id="graph2" class="cluster"><title>cluster_GraphiteFiller</title>
<polyline fill="none" stroke="gray" points="352,-8 460,-8 "/>
<path fill="none" stroke="gray" d="M460,-8C466,-8 472,-14 472,-20"/>
<polyline fill="none" stroke="gray" points="472,-20 472,-177 "/>
<path fill="none" stroke="gray" d="M472,-177C472,-183 466,-189 460,-189"/>
<polyline fill="none" stroke="gray" points="460,-189 352,-189 "/>
<path fill="none" stroke="gray" d="M352,-189C346,-189 340,-183 340,-177"/>
<polyline fill="none" stroke="gray" points="340,-177 340,-20 "/>
<path fill="none" stroke="gray" d="M340,-20C340,-14 346,-8 352,-8"/>
<text text-anchor="middle" x="406" y="-174" font-family="Times,serif" font-size="11.00" fill="gray">GraphiteFiller</text>
</g>
<g id="graph3" class="cluster"><title>cluster_default</title>
<polyline fill="none" stroke="none" points="362,-197 450,-197 "/>
<path fill="none" stroke="none" d="M450,-197C456,-197 462,-203 462,-209"/>
<polyline fill="none" stroke="none" points="462,-209 462,-237 "/>
<path fill="none" stroke="none" d="M462,-237C462,-243 456,-249 450,-249"/>
<polyline fill="none" stroke="none" points="450,-249 362,-249 "/>
<path fill="none" stroke="none" d="M362,-249C356,-249 350,-243 350,-237"/>
<polyline fill="none" stroke="none" points="350,-237 350,-209 "/>
<path fill="none" stroke="none" d="M350,-209C350,-203 356,-197 362,-197"/>
</g>
<!-- \\GraphiteFiller\\Connection -->
<g id="node2" class="node"><title>\\GraphiteFiller\\Connection</title>
<a xlink:href="src.Graphite.Connection.html" xlink:title="Connection" target="_parent">
<polygon fill="none" stroke="black" points="447.011,-160 364.989,-160 364.989,-124 447.011,-124 447.011,-160"/>
<text text-anchor="middle" x="406" y="-137.6" font-family="Courier,monospace" font-size="11.00">Connection</text>
</a>
</g>
<!-- \\GraphiteFiller\\SocketException -->
<g id="node3" class="node"><title>\\GraphiteFiller\\SocketException</title>
<a xlink:href="src.SocketException.inc.html" xlink:title="SocketException" target="_parent">
<polygon fill="none" stroke="black" points="463.516,-106 348.484,-106 348.484,-70 463.516,-70 463.516,-106"/>
<text text-anchor="middle" x="406" y="-83.6" font-family="Courier,monospace" font-size="11.00">SocketException</text>
</a>
</g>
<!-- \\GraphiteFiller\\Exception -->
<g id="node8" class="node"><title>\\GraphiteFiller\\Exception</title>
<ellipse fill="none" stroke="black" cx="138" cy="-88" rx="110.022" ry="18"/>
<text text-anchor="middle" x="138" y="-82.4" font-family="Times,serif" font-size="14.00" fill="gray">\GraphiteFiller\Exception</text>
</g>
<!-- \\GraphiteFiller\\SocketException&#45;&gt;\\GraphiteFiller\\Exception -->
<g id="edge4" class="edge"><title>\\GraphiteFiller\\SocketException&#45;&gt;\\GraphiteFiller\\Exception</title>
<path fill="none" stroke="black" d="M348.263,-88C322.035,-88 289.83,-88 258.619,-88"/>
<polygon fill="none" stroke="black" points="258.529,-84.5001 248.529,-88 258.529,-91.5001 258.529,-84.5001"/>
</g>
<!-- \\GraphiteFiller\\SocketProxy -->
<g id="node4" class="node"><title>\\GraphiteFiller\\SocketProxy</title>
<a xlink:href="src.SocketProxy.inc.html" xlink:title="SocketProxy" target="_parent">
<polygon fill="none" stroke="black" points="450.113,-52 361.887,-52 361.887,-16 450.113,-16 450.113,-52"/>
<text text-anchor="middle" x="406" y="-29.6" font-family="Courier,monospace" font-size="11.00">SocketProxy</text>
</a>
</g>
<!-- \\GraphiteTest -->
<g id="node6" class="node"><title>\\GraphiteTest</title>
<a xlink:href="tests.GraphiteTest.html" xlink:title="GraphiteTest" target="_parent">
<polygon fill="none" stroke="black" points="453.713,-241 358.287,-241 358.287,-205 453.713,-205 453.713,-241"/>
<text text-anchor="middle" x="406" y="-218.6" font-family="Courier,monospace" font-size="11.00">GraphiteTest</text>
</a>
</g>
<!-- \\PHPUnit_Framework_TestCase -->
<g id="node10" class="node"><title>\\PHPUnit_Framework_TestCase</title>
<ellipse fill="none" stroke="black" cx="138" cy="-223" rx="137.502" ry="18"/>
<text text-anchor="middle" x="138" y="-217.4" font-family="Times,serif" font-size="14.00" fill="gray">\PHPUnit_Framework_TestCase</text>
</g>
<!-- \\GraphiteTest&#45;&gt;\\PHPUnit_Framework_TestCase -->
<g id="edge6" class="edge"><title>\\GraphiteTest&#45;&gt;\\PHPUnit_Framework_TestCase</title>
<path fill="none" stroke="black" d="M358.362,-223C337.685,-223 312.102,-223 285.791,-223"/>
<polygon fill="none" stroke="black" points="285.68,-219.5 275.68,-223 285.68,-226.5 285.68,-219.5"/>
</g>
</g>
</svg>
